<svg height="512pt" viewBox="0 -39 512 512" width="512pt" xmlns="http://www.w3.org/2000/svg"><path d="m131.675781 25.6875h-90.242187c-13.714844 0-24.832032 11.117188-24.832032 24.832031 0 13.71875 11.117188 24.835938 24.832032 24.835938h65.40625v42.019531h-74.492188c-13.714844 0-24.832031 11.117188-24.832031 24.832031v91.6875c0 13.714844 11.117187 24.835938 24.832031 24.835938h99.328125c13.714844 0 24.832031-11.121094 24.832031-24.835938 0-13.714843-11.117187-24.832031-24.832031-24.832031h-74.496093v-42.019531h74.496093c13.714844 0 24.832031-11.121094 24.832031-24.835938v-91.6875c0-13.714843-11.117187-24.832031-24.832031-24.832031zm0 0" fill="#ffdb57"/><g fill="#e4b430"><path d="m241.136719 288.839844h-20.28125l-13.058594 19.480468c-2.945313 4.394532.207031 10.304688 5.5 10.304688h35.398437c5.292969 0 8.445313-5.90625 5.496094-10.304688 0 0-6.628906-9.894531-13.054687-19.480468zm0 0"/><path d="m444.46875 272.347656h-20.28125l-13.058594 19.480469c-2.945312 4.398437.203125 10.300781 5.5 10.300781h35.398438c5.292968 0 8.445312-5.90625 5.496094-10.300781 0 0-6.632813-9.894531-13.054688-19.480469zm0 0"/><path d="m340.796875 243.839844h-20.277344l-13.058593 19.476562c-2.945313 4.398438.207031 10.304688 5.496093 10.304688h35.402344c5.292969 0 8.445313-5.90625 5.496094-10.304688 0 0-6.632813-9.894531-13.058594-19.476562zm0 0"/><path d="m91.761719 258.726562h-20.277344l-13.058594 19.480469c-2.945312 4.398438.203125 10.304688 5.496094 10.304688h35.402344c5.292969 0 8.441406-5.90625 5.496093-10.304688 0 0-6.632812-9.894531-13.058593-19.480469zm0 0"/></g><path d="m479.652344 39.308594h-99.328125c-13.714844 0-24.832031 11.117187-24.832031 24.832031v91.6875c0 13.714844 11.117187 24.832031 24.832031 24.832031h74.496093v42.023438h-74.496093c-13.714844 0-24.832031 11.117187-24.832031 24.832031s11.117187 24.832031 24.832031 24.832031h99.328125c13.714844 0 24.835937-11.117187 24.835937-24.832031v-183.375c-.003906-13.714844-11.121093-24.832031-24.835937-24.832031zm-24.832032 91.6875h-49.660156v-42.019532h49.660156zm0 0" fill="#ffdb57"/><path d="m479.652344 39.308594h-27.046875c13.714843 0 24.832031 11.117187 24.832031 24.832031v183.375c0 13.714844-11.117188 24.832031-24.832031 24.832031h27.046875c13.714844 0 24.835937-11.117187 24.835937-24.832031v-183.375c-.003906-13.714844-11.121093-24.832031-24.835937-24.832031zm0 0" fill="#f6c134"/><path d="m280.992188 55.75h-99.328126c-13.714843 0-24.835937 11.117188-24.835937 24.832031v183.375c0 13.714844 11.121094 24.832031 24.835937 24.832031h99.328126c13.714843 0 24.832031-11.117187 24.832031-24.832031v-183.375c0-13.714843-11.117188-24.832031-24.832031-24.832031zm-24.832032 183.371094h-49.664062v-133.707032h49.664062zm0 0" fill="#ffdb57"/><path d="m280.992188 55.75h-27.050782c13.714844 0 24.832032 11.117188 24.832032 24.832031v183.375c0 13.714844-11.117188 24.832031-24.832032 24.832031h27.050782c13.714843 0 24.832031-11.117187 24.832031-24.832031v-183.375c0-13.714843-11.117188-24.832031-24.832031-24.832031zm0 0" fill="#f6c134"/><path d="m131.675781 209.0625h-27.050781c13.714844 0 24.832031 11.117188 24.832031 24.832031 0 13.714844-11.117187 24.832031-24.832031 24.832031h27.050781c13.714844 0 24.832031-11.117187 24.832031-24.832031 0-13.714843-11.117187-24.832031-24.832031-24.832031zm0 0" fill="#f6c134"/><path d="m131.675781 25.6875h-27.050781c13.714844 0 24.832031 11.117188 24.832031 24.832031v91.6875c0 13.714844-11.117187 24.832031-24.832031 24.832031h27.050781c13.714844 0 24.832031-11.117187 24.832031-24.832031v-91.6875c0-13.714843-11.117187-24.832031-24.832031-24.832031zm0 0" fill="#f6c134"/><path d="m330.65625 7.515625c-13.714844 0-24.832031 11.117187-24.832031 24.832031v183.375c0 13.714844 11.117187 24.832032 24.832031 24.832032 13.71875 0 24.835938-11.117188 24.835938-24.832032v-183.375c0-13.714844-11.117188-24.832031-24.835938-24.832031zm0 0" fill="#ffdb57"/><path d="m330.65625 7.515625c-4.988281 0-9.628906 1.476563-13.523438 4.007813 6.804688 4.429687 11.308594 12.097656 11.308594 20.824218v183.375c0 8.722656-4.503906 16.390625-11.308594 20.820313 3.894532 2.535156 8.535157 4.011719 13.523438 4.011719 13.71875 0 24.835938-11.117188 24.835938-24.832032v-183.375c0-13.714844-11.117188-24.832031-24.835938-24.832031zm0 0" fill="#f6c134"/><path d="m405.160156 81.460938c-4.152344 0-7.515625 3.367187-7.515625 7.515624v42.019532c0 4.148437 3.363281 7.511718 7.515625 7.511718h49.660156c4.148438 0 7.515626-3.363281 7.515626-7.511718v-42.019532c0-4.148437-3.367188-7.515624-7.515626-7.515624zm42.144532 42.019531h-34.632813v-26.988281h34.632813zm0 0"/><path d="m504.484375 201.546875c4.152344 0 7.515625-3.363281 7.515625-7.511719v-129.894531c0-17.832031-14.511719-32.34375-32.347656-32.34375h-99.328125c-6.367188 0-12.308594 1.855469-17.316407 5.046875v-4.496094c0-17.835937-14.511718-32.347656-32.347656-32.347656-17.835937 0-32.347656 14.511719-32.347656 32.347656v20.9375c-5.011719-3.191406-10.953125-5.050781-17.320312-5.050781h-99.328126c-6.503906 0-12.5625 1.9375-17.640624 5.253906v-2.96875c0-17.835937-14.511719-32.34375-32.347657-32.34375h-90.242187c-17.835938 0-32.347656 14.507813-32.347656 32.34375 0 17.835938 14.511718 32.347657 32.347656 32.347657h57.894531v26.992187h-66.980469c-17.835937 0-32.347656 14.511719-32.347656 32.347656v36.800781c0 4.148438 3.363281 7.511719 7.515625 7.511719 4.148437 0 7.511719-3.363281 7.511719-7.511719v-36.800781c0-9.550781 7.769531-17.320312 17.320312-17.320312h74.496094c4.148438 0 7.511719-3.363281 7.511719-7.511719v-42.019531c0-4.152344-3.363281-7.515625-7.511719-7.515625h-65.410156c-9.550782 0-17.320313-7.769532-17.320313-17.320313s7.769531-17.320312 17.320313-17.320312h90.242187c9.550781 0 17.320313 7.769531 17.320313 17.320312v91.6875c0 9.546875-7.769532 17.320313-17.320313 17.320313h-74.496093c-4.148438 0-7.511719 3.363281-7.511719 7.511718v42.023438c0 4.148438 3.363281 7.511719 7.511719 7.511719h74.496093c9.550781 0 17.320313 7.769531 17.320313 17.320312s-7.769532 17.320313-17.320313 17.320313h-99.328125c-9.550781 0-17.320312-7.769532-17.320312-17.320313v-24.832031c0-4.152344-3.363282-7.515625-7.511719-7.515625-4.152344 0-7.515625 3.363281-7.515625 7.515625v24.832031c0 17.835938 14.511719 32.347657 32.347656 32.347657h25.050782l-5.214844 7.78125c-2.910156 4.34375-3.191406 9.90625-.726563 14.519531 2.460938 4.613281 7.238281 7.480469 12.464844 7.480469h10.1875v129.804687c0 4.152344 3.363281 7.515625 7.511719 7.515625 4.152344 0 7.515625-3.363281 7.515625-7.515625v-129.804687h10.183593c5.230469 0 10.007813-2.867188 12.46875-7.480469 2.460938-4.613281 2.183594-10.175781-.730468-14.523438l-5.214844-7.777343h25.832031c6.503907 0 12.5625-1.9375 17.640625-5.257813v2.96875c0 17.835937 14.507813 32.347656 32.347656 32.347656h25.140626l-5.25 7.832031c-2.910157 4.34375-3.191407 9.910157-.726563 14.523438 2.460937 4.613281 7.238281 7.476562 12.464844 7.476562h10.1875v99.695313c0 4.148437 3.363281 7.515625 7.515625 7.515625 4.148437 0 7.511718-3.367188 7.511718-7.515625v-99.695313h10.1875c5.226563 0 10.003907-2.863281 12.464844-7.476562 2.464844-4.613281 2.183594-10.179688-.730468-14.523438l-5.25-7.832031h25.808593c11.796875 0 22.132813-6.347656 27.785157-15.808593 1.335937.414062 2.738281.640624 4.183593.640624h10.183594v144.695313c0 4.152344 3.363281 7.515625 7.515625 7.515625s7.511719-3.363281 7.511719-7.515625v-144.695313h10.1875c5.230469 0 10.007812-2.867187 12.46875-7.480468.042969-.082032.082031-.167969.125-.25 5.402343 4.054687 12.113281 6.460937 19.375 6.460937h29.777343l-5.214843 7.78125c-2.910157 4.34375-3.191407 9.90625-.730469 14.519531 2.460938 4.613282 7.238281 7.480469 12.46875 7.480469h10.183594v116.1875c0 4.148438 3.363281 7.511719 7.515625 7.511719 4.148437 0 7.511719-3.363281 7.511719-7.511719v-116.1875h10.191406c5.226562 0 10.003906-2.867187 12.464844-7.480469 2.464843-4.613281 2.183593-10.175781-.726563-14.519531l-5.214844-7.78125h21.101563c17.835937 0 32.347656-14.511719 32.347656-32.347656v-23.425781c0-4.148438-3.363281-7.515625-7.515625-7.515625-4.148437 0-7.511719 3.367187-7.511719 7.515625v23.425781c0 9.550781-7.769531 17.320313-17.320312 17.320313h-99.328125c-9.546875 0-17.320313-7.769532-17.320313-17.320313s7.773438-17.320313 17.320313-17.320313h74.496093c4.148438 0 7.511719-3.363281 7.511719-7.511718v-42.023438c0-4.148437-3.363281-7.511718-7.511719-7.511718h-74.496093c-9.546875 0-17.320313-7.769532-17.320313-17.320313v-91.6875c0-9.546875 7.773438-17.316406 17.320313-17.316406h99.328125c9.550781 0 17.320312 7.769531 17.320312 17.316406v129.894531c0 4.148438 3.363282 7.511719 7.511719 7.511719zm-406.839844 79.449219h-32.042969l9.890626-14.753906h12.261718zm117.328125 30.113281 9.890625-14.753906h12.261719l9.890625 14.753906zm225.484375-31.246094 9.890625 14.753907h-32.039062l9.886718-14.753907zm-127.117187-247.515625c0-9.550781 7.769531-17.320312 17.316406-17.320312 9.550781 0 17.320312 7.769531 17.320312 17.320312v183.375c0 9.546875-7.769531 17.316406-17.320312 17.316406-9.546875 0-17.316406-7.769531-17.316406-17.316406zm-181.664063 169.199219h-66.980469v-26.992187h66.980469c6.503907 0 12.5625-1.9375 17.640625-5.253907v37.5c-5.078125-3.316406-11.136718-5.253906-17.640625-5.253906zm166.636719 62.410156c0 9.550781-7.773438 17.320313-17.320312 17.320313h-99.328126c-9.550781 0-17.320312-7.769532-17.320312-17.320313v-183.375c0-9.550781 7.769531-17.320312 17.320312-17.320312h99.328126c9.546874 0 17.320312 7.769531 17.320312 17.320312zm16.324219 2.148438 9.890625-14.753907h12.261718l9.890626 14.753907zm65.6875-77.929688h66.980469v26.992188h-66.980469c-6.515625 0-12.585938 1.945312-17.667969 5.273437.226562-1.542968.347656-3.117187.347656-4.71875v-32.59375c5.011719 3.1875 10.953125 5.046875 17.320313 5.046875zm0 0"/><path d="m256.15625 97.902344h-49.660156c-4.148438 0-7.515625 3.363281-7.515625 7.511718v25.207032c0 4.152344 3.367187 7.515625 7.515625 7.515625 4.148437 0 7.511718-3.363281 7.511718-7.515625v-17.691406h34.636719v118.679687h-34.636719v-70.933594c0-4.148437-3.363281-7.511719-7.511718-7.511719-4.148438 0-7.515625 3.363282-7.515625 7.511719v78.445313c0 4.152344 3.367187 7.515625 7.515625 7.515625h49.660156c4.152344 0 7.515625-3.363281 7.515625-7.515625v-133.707032c0-4.148437-3.363281-7.511718-7.515625-7.511718zm0 0"/></svg>