<svg xmlns="http://www.w3.org/2000/svg" xmlns:xlink="http://www.w3.org/1999/xlink"><defs><symbol viewBox="0 -39 512 512" id="2019"><path d="M131.676 25.688H41.434c-13.715 0-24.832 11.117-24.832 24.832 0 13.718 11.117 24.835 24.832 24.835h65.406v42.02H32.348c-13.715 0-24.832 11.117-24.832 24.832v91.688c0 13.714 11.117 24.835 24.832 24.835h99.328c13.715 0 24.832-11.12 24.832-24.835 0-13.715-11.117-24.833-24.832-24.833H57.18v-42.019h74.496c13.715 0 24.832-11.121 24.832-24.836V50.52c0-13.715-11.117-24.833-24.832-24.833zm0 0" fill="#ffdb57" /><g fill="#e4b430"><path d="M241.137 288.84h-20.282l-13.058 19.48c-2.945 4.395.207 10.305 5.5 10.305h35.398c5.293 0 8.446-5.906 5.496-10.305l-13.054-19.48zm0 0M444.469 272.348h-20.281l-13.06 19.48c-2.944 4.399.204 10.3 5.5 10.3h35.4c5.292 0 8.445-5.905 5.495-10.3 0 0-6.632-9.894-13.054-19.48zm0 0M340.797 243.84H320.52l-13.06 19.476c-2.944 4.399.208 10.305 5.497 10.305h35.402c5.293 0 8.446-5.906 5.496-10.305 0 0-6.632-9.894-13.058-19.476zm0 0M91.762 258.727H71.484l-13.058 19.48c-2.946 4.398.203 10.305 5.496 10.305h35.402c5.293 0 8.442-5.907 5.496-10.305l-13.058-19.48zm0 0" /></g><path d="M479.652 39.309h-99.328c-13.715 0-24.832 11.117-24.832 24.832v91.687c0 13.715 11.117 24.832 24.832 24.832h74.496v42.024h-74.496c-13.715 0-24.832 11.117-24.832 24.832s11.117 24.832 24.832 24.832h99.328c13.715 0 24.836-11.118 24.836-24.832V64.14c-.004-13.715-11.12-24.832-24.836-24.832zm-24.832 91.687h-49.66v-42.02h49.66zm0 0" fill="#ffdb57" /><path d="M479.652 39.309h-27.047c13.715 0 24.833 11.117 24.833 24.832v183.375c0 13.714-11.118 24.832-24.833 24.832h27.047c13.715 0 24.836-11.118 24.836-24.832V64.14c-.004-13.715-11.12-24.832-24.836-24.832zm0 0" fill="#f6c134" /><path d="M280.992 55.75h-99.328c-13.715 0-24.836 11.117-24.836 24.832v183.375c0 13.715 11.121 24.832 24.836 24.832h99.328c13.715 0 24.832-11.117 24.832-24.832V80.582c0-13.715-11.117-24.832-24.832-24.832zM256.16 239.121h-49.664V105.414h49.664zm0 0" fill="#ffdb57" /><path d="M280.992 55.75h-27.05c13.714 0 24.831 11.117 24.831 24.832v183.375c0 13.715-11.117 24.832-24.832 24.832h27.051c13.715 0 24.832-11.117 24.832-24.832V80.582c0-13.715-11.117-24.832-24.832-24.832zm0 0M131.676 209.063h-27.051c13.715 0 24.832 11.117 24.832 24.832 0 13.714-11.117 24.832-24.832 24.832h27.05c13.716 0 24.833-11.118 24.833-24.832 0-13.715-11.117-24.833-24.832-24.833zm0 0M131.676 25.688h-27.051c13.715 0 24.832 11.117 24.832 24.832v91.687c0 13.715-11.117 24.832-24.832 24.832h27.05c13.716 0 24.833-11.117 24.833-24.832V50.52c0-13.715-11.117-24.833-24.832-24.833zm0 0" fill="#f6c134" /><path d="M330.656 7.516c-13.715 0-24.832 11.117-24.832 24.832v183.375c0 13.714 11.117 24.832 24.832 24.832 13.719 0 24.836-11.118 24.836-24.832V32.348c0-13.715-11.117-24.832-24.836-24.832zm0 0" fill="#ffdb57" /><path d="M330.656 7.516a24.73 24.73 0 0 0-13.523 4.007c6.805 4.43 11.308 12.098 11.308 20.825v183.375c0 8.722-4.503 16.39-11.308 20.82a24.7 24.7 0 0 0 13.523 4.012c13.719 0 24.836-11.118 24.836-24.832V32.348c0-13.715-11.117-24.832-24.836-24.832zm0 0" fill="#f6c134" /><path d="M405.16 81.46a7.516 7.516 0 0 0-7.515 7.517v42.02a7.513 7.513 0 0 0 7.515 7.51h49.66a7.515 7.515 0 0 0 7.516-7.51v-42.02a7.519 7.519 0 0 0-7.516-7.516zm42.145 42.02h-34.633V96.492h34.633zm0 0" /><path d="M504.484 201.547a7.513 7.513 0 0 0 7.516-7.512V64.141c0-17.832-14.512-32.344-32.348-32.344h-99.328a32.122 32.122 0 0 0-17.316 5.047v-4.496C363.008 14.512 348.496 0 330.66 0s-32.348 14.512-32.348 32.348v20.937a32.148 32.148 0 0 0-17.32-5.05h-99.328a32.161 32.161 0 0 0-17.64 5.253V50.52c0-17.836-14.512-32.344-32.348-32.344H41.434c-17.836 0-32.348 14.508-32.348 32.344 0 17.835 14.512 32.347 32.348 32.347h57.894v26.992h-66.98C14.512 109.86 0 124.371 0 142.207v36.8a7.513 7.513 0 0 0 7.516 7.513 7.512 7.512 0 0 0 7.511-7.512v-36.801c0-9.55 7.77-17.32 17.32-17.32h74.497a7.512 7.512 0 0 0 7.511-7.512v-42.02a7.513 7.513 0 0 0-7.511-7.515h-65.41c-9.551 0-17.32-7.77-17.32-17.32s7.769-17.32 17.32-17.32h90.242c9.55 0 17.32 7.769 17.32 17.32v91.687c0 9.547-7.77 17.32-17.32 17.32H57.18a7.512 7.512 0 0 0-7.512 7.512v42.024a7.512 7.512 0 0 0 7.512 7.511h74.496c9.55 0 17.32 7.77 17.32 17.32s-7.77 17.32-17.32 17.32H32.348c-9.551 0-17.32-7.769-17.32-17.32v-24.832a7.514 7.514 0 1 0-15.027 0v24.833c-.001 17.835 14.51 32.347 32.347 32.347h25.05l-5.214 7.781a14.1 14.1 0 0 0-.727 14.52 14.105 14.105 0 0 0 12.465 7.48h10.187v129.805a7.514 7.514 0 1 0 15.027 0V296.023H99.32c5.23 0 10.008-2.867 12.47-7.48a14.107 14.107 0 0 0-.731-14.523l-5.215-7.778h25.832a32.132 32.132 0 0 0 17.64-5.258v2.97c0 17.835 14.508 32.347 32.348 32.347h25.14l-5.25 7.832a14.106 14.106 0 0 0-.726 14.523 14.101 14.101 0 0 0 12.465 7.477h10.187v99.695a7.516 7.516 0 0 0 7.516 7.516 7.515 7.515 0 0 0 7.512-7.516v-99.695h10.187a14.101 14.101 0 0 0 12.465-7.477 14.098 14.098 0 0 0-.73-14.523l-5.25-7.832h25.808c11.797 0 22.133-6.348 27.785-15.809a14.1 14.1 0 0 0 4.184.64h10.184v144.696c0 4.152 3.363 7.516 7.515 7.516s7.512-3.364 7.512-7.516V281.133h10.187c5.23 0 10.008-2.867 12.47-7.48.042-.083.081-.169.124-.25a32.176 32.176 0 0 0 19.375 6.46h29.778l-5.215 7.782a14.108 14.108 0 0 0-.73 14.52 14.107 14.107 0 0 0 12.468 7.48h10.184v116.187a7.513 7.513 0 0 0 7.515 7.512 7.512 7.512 0 0 0 7.512-7.512V309.645h10.191a14.105 14.105 0 0 0 12.465-7.48 14.1 14.1 0 0 0-.726-14.52l-5.215-7.782h21.101c17.836 0 32.348-14.511 32.348-32.347V224.09a7.516 7.516 0 0 0-7.516-7.516 7.515 7.515 0 0 0-7.511 7.516v23.426c0 9.55-7.77 17.32-17.32 17.32h-99.329c-9.547 0-17.32-7.77-17.32-17.32s7.773-17.32 17.32-17.32h74.496a7.512 7.512 0 0 0 7.512-7.512V180.66a7.512 7.512 0 0 0-7.512-7.512h-74.496c-9.547 0-17.32-7.77-17.32-17.32V64.141c0-9.547 7.773-17.317 17.32-17.317h99.328c9.551 0 17.32 7.77 17.32 17.317v129.894a7.512 7.512 0 0 0 7.512 7.512zm-406.84 79.45H65.603l9.89-14.755h12.262zm117.329 30.112l9.89-14.754h12.262l9.89 14.754zm225.484-31.246l9.89 14.754H418.31l9.886-14.754zM313.34 32.348c0-9.551 7.77-17.32 17.316-17.32 9.551 0 17.32 7.769 17.32 17.32v183.375c0 9.547-7.769 17.316-17.32 17.316-9.547 0-17.316-7.77-17.316-17.316zM131.676 201.547h-66.98v-26.992h66.98a32.161 32.161 0 0 0 17.64-5.254v37.5a32.161 32.161 0 0 0-17.64-5.254zm166.636 62.41c0 9.55-7.773 17.32-17.32 17.32h-99.328c-9.55 0-17.32-7.77-17.32-17.32V80.582c0-9.55 7.77-17.32 17.32-17.32h99.328c9.547 0 17.32 7.77 17.32 17.32zm16.325 2.148l9.89-14.753h12.262l9.89 14.753zm65.687-77.93h66.98v26.993h-66.98a32.152 32.152 0 0 0-17.668 5.273c.227-1.543.348-3.117.348-4.718v-32.594a32.179 32.179 0 0 0 17.32 5.047zm0 0" /><path d="M256.156 97.902h-49.66a7.515 7.515 0 0 0-7.516 7.512v25.207a7.516 7.516 0 0 0 7.516 7.516 7.513 7.513 0 0 0 7.512-7.516V112.93h34.637v118.68h-34.637v-70.934a7.512 7.512 0 0 0-7.512-7.512 7.515 7.515 0 0 0-7.516 7.512v78.445a7.516 7.516 0 0 0 7.516 7.516h49.66a7.514 7.514 0 0 0 7.516-7.516V105.414a7.513 7.513 0 0 0-7.516-7.512zm0 0" /></symbol><symbol fill="none" viewBox="0 0 7 9" id="blank"></symbol><symbol viewBox="0 0 513.597 513.597" id="place"><path d="M263.278.107C158.977-3.408 73.323 80.095 73.323 183.602c0 117.469 112.73 202.72 175.915 325.322 3.208 6.225 12.169 6.233 15.388.009 57.16-110.317 154.854-184.291 172.959-290.569C456.331 108.387 374.776 3.866 263.278.107zm-6.355 279.666c-53.113 0-96.171-43.059-96.171-96.171s43.059-96.171 96.171-96.171c53.113 0 96.172 43.059 96.172 96.171s-43.059 96.171-96.172 96.171z" /></symbol></defs></svg>